<?xml version="1.0" standalone="no"?>
<svg xmlns="http://www.w3.org/2000/svg" width="1000" height="1300" viewBox="0 0 1000 1300"><defs><clipPath id="clip-path-dot-color"><rect x="152" y="344" width="24" height="24" transform="rotate(0,164,356)"/><rect x="152" y="416" width="24" height="24" transform="rotate(0,164,428)"/><rect x="152" y="440" width="24" height="24" transform="rotate(0,164,452)"/><rect x="152" y="536" width="24" height="24" transform="rotate(0,164,548)"/><rect x="152" y="584" width="24" height="24" transform="rotate(0,164,596)"/><rect x="152" y="608" width="24" height="24" transform="rotate(0,164,620)"/><rect x="176" y="344" width="24" height="24" transform="rotate(0,188,356)"/><rect x="176" y="368" width="24" height="24" transform="rotate(0,188,380)"/><rect x="176" y="392" width="24" height="24" transform="rotate(0,188,404)"/><rect x="176" y="440" width="24" height="24" transform="rotate(0,188,452)"/><rect x="176" y="464" width="24" height="24" transform="rotate(0,188,476)"/><rect x="176" y="512" width="24" height="24" transform="rotate(0,188,524)"/><rect x="176" y="584" width="24" height="24" transform="rotate(0,188,596)"/><rect x="176" y="608" width="24" height="24" transform="rotate(0,188,620)"/><rect x="176" y="632" width="24" height="24" transform="rotate(0,188,644)"/><rect x="200" y="344" width="24" height="24" transform="rotate(0,212,356)"/><rect x="200" y="392" width="24" height="24" transform="rotate(0,212,404)"/><rect x="200" y="416" width="24" height="24" transform="rotate(0,212,428)"/><rect x="200" y="440" width="24" height="24" transform="rotate(0,212,452)"/><rect x="200" y="464" width="24" height="24" transform="rotate(0,212,476)"/><rect x="200" y="536" width="24" height="24" transform="rotate(0,212,548)"/><rect x="200" y="608" width="24" height="24" transform="rotate(0,212,620)"/><rect x="200" y="632" width="24" height="24" transform="rotate(0,212,644)"/><rect x="224" y="344" width="24" height="24" transform="rotate(0,236,356)"/><rect x="224" y="440" width="24" height="24" transform="rotate(0,236,452)"/><rect x="224" y="536" width="24" height="24" transform="rotate(0,236,548)"/><rect x="224" y="632" width="24" height="24" transform="rotate(0,236,644)"/><rect x="248" y="344" width="24" height="24" transform="rotate(0,260,356)"/><rect x="248" y="368" width="24" height="24" transform="rotate(0,260,380)"/><rect x="248" y="392" width="24" height="24" transform="rotate(0,260,404)"/><rect x="248" y="416" width="24" height="24" transform="rotate(0,260,428)"/><rect x="248" y="440" width="24" height="24" transform="rotate(0,260,452)"/><rect x="248" y="560" width="24" height="24" transform="rotate(0,260,572)"/><rect x="248" y="584" width="24" height="24" transform="rotate(0,260,596)"/><rect x="248" y="608" width="24" height="24" transform="rotate(0,260,620)"/><rect x="272" y="392" width="24" height="24" transform="rotate(0,284,404)"/><rect x="272" y="440" width="24" height="24" transform="rotate(0,284,452)"/><rect x="272" y="536" width="24" height="24" transform="rotate(0,284,548)"/><rect x="272" y="560" width="24" height="24" transform="rotate(0,284,572)"/><rect x="272" y="608" width="24" height="24" transform="rotate(0,284,620)"/><rect x="272" y="632" width="24" height="24" transform="rotate(0,284,644)"/><rect x="296" y="344" width="24" height="24" transform="rotate(0,308,356)"/><rect x="296" y="392" width="24" height="24" transform="rotate(0,308,404)"/><rect x="296" y="440" width="24" height="24" transform="rotate(0,308,452)"/><rect x="296" y="488" width="24" height="24" transform="rotate(0,308,500)"/><rect x="296" y="536" width="24" height="24" transform="rotate(0,308,548)"/><rect x="296" y="584" width="24" height="24" transform="rotate(0,308,596)"/><rect x="296" y="632" width="24" height="24" transform="rotate(0,308,644)"/><rect x="320" y="344" width="24" height="24" transform="rotate(0,332,356)"/><rect x="320" y="392" width="24" height="24" transform="rotate(0,332,404)"/><rect x="320" y="440" width="24" height="24" transform="rotate(0,332,452)"/><rect x="320" y="464" width="24" height="24" transform="rotate(0,332,476)"/><rect x="320" y="512" width="24" height="24" transform="rotate(0,332,524)"/><rect x="320" y="560" width="24" height="24" transform="rotate(0,332,572)"/><rect x="320" y="632" width="24" height="24" transform="rotate(0,332,644)"/><rect x="344" y="176" width="24" height="24" transform="rotate(0,356,188)"/><rect x="344" y="200" width="24" height="24" transform="rotate(0,356,212)"/><rect x="344" y="248" width="24" height="24" transform="rotate(0,356,260)"/><rect x="344" y="296" width="24" height="24" transform="rotate(0,356,308)"/><rect x="344" y="320" width="24" height="24" transform="rotate(0,356,332)"/><rect x="344" y="392" width="24" height="24" transform="rotate(0,356,404)"/><rect x="344" y="440" width="24" height="24" transform="rotate(0,356,452)"/><rect x="344" y="632" width="24" height="24" transform="rotate(0,356,644)"/><rect x="344" y="680" width="24" height="24" transform="rotate(0,356,692)"/><rect x="344" y="728" width="24" height="24" transform="rotate(0,356,740)"/><rect x="344" y="752" width="24" height="24" transform="rotate(0,356,764)"/><rect x="344" y="776" width="24" height="24" transform="rotate(0,356,788)"/><rect x="344" y="800" width="24" height="24" transform="rotate(0,356,812)"/><rect x="344" y="824" width="24" height="24" transform="rotate(0,356,836)"/><rect x="368" y="152" width="24" height="24" transform="rotate(0,380,164)"/><rect x="368" y="200" width="24" height="24" transform="rotate(0,380,212)"/><rect x="368" y="248" width="24" height="24" transform="rotate(0,380,260)"/><rect x="368" y="272" width="24" height="24" transform="rotate(0,380,284)"/><rect x="368" y="320" width="24" height="24" transform="rotate(0,380,332)"/><rect x="368" y="344" width="24" height="24" transform="rotate(0,380,356)"/><rect x="368" y="392" width="24" height="24" transform="rotate(0,380,404)"/><rect x="368" y="464" width="24" height="24" transform="rotate(0,380,476)"/><rect x="368" y="488" width="24" height="24" transform="rotate(0,380,500)"/><rect x="368" y="536" width="24" height="24" transform="rotate(0,380,548)"/><rect x="368" y="608" width="24" height="24" transform="rotate(0,380,620)"/><rect x="368" y="632" width="24" height="24" transform="rotate(0,380,644)"/><rect x="368" y="680" width="24" height="24" transform="rotate(0,380,692)"/><rect x="368" y="704" width="24" height="24" transform="rotate(0,380,716)"/><rect x="368" y="752" width="24" height="24" transform="rotate(0,380,764)"/><rect x="368" y="824" width="24" height="24" transform="rotate(0,380,836)"/><rect x="392" y="152" width="24" height="24" transform="rotate(0,404,164)"/><rect x="392" y="176" width="24" height="24" transform="rotate(0,404,188)"/><rect x="392" y="200" width="24" height="24" transform="rotate(0,404,212)"/><rect x="392" y="224" width="24" height="24" transform="rotate(0,404,236)"/><rect x="392" y="296" width="24" height="24" transform="rotate(0,404,308)"/><rect x="392" y="320" width="24" height="24" transform="rotate(0,404,332)"/><rect x="392" y="344" width="24" height="24" transform="rotate(0,404,356)"/><rect x="392" y="368" width="24" height="24" transform="rotate(0,404,380)"/><rect x="392" y="392" width="24" height="24" transform="rotate(0,404,404)"/><rect x="392" y="440" width="24" height="24" transform="rotate(0,404,452)"/><rect x="392" y="488" width="24" height="24" transform="rotate(0,404,500)"/><rect x="392" y="536" width="24" height="24" transform="rotate(0,404,548)"/><rect x="392" y="560" width="24" height="24" transform="rotate(0,404,572)"/><rect x="392" y="632" width="24" height="24" transform="rotate(0,404,644)"/><rect x="392" y="728" width="24" height="24" transform="rotate(0,404,740)"/><rect x="392" y="752" width="24" height="24" transform="rotate(0,404,764)"/><rect x="392" y="800" width="24" height="24" transform="rotate(0,404,812)"/><rect x="392" y="824" width="24" height="24" transform="rotate(0,404,836)"/><rect x="416" y="176" width="24" height="24" transform="rotate(0,428,188)"/><rect x="416" y="248" width="24" height="24" transform="rotate(0,428,260)"/><rect x="416" y="272" width="24" height="24" transform="rotate(0,428,284)"/><rect x="416" y="320" width="24" height="24" transform="rotate(0,428,332)"/><rect x="416" y="368" width="24" height="24" transform="rotate(0,428,380)"/><rect x="416" y="416" width="24" height="24" transform="rotate(0,428,428)"/><rect x="416" y="488" width="24" height="24" transform="rotate(0,428,500)"/><rect x="416" y="560" width="24" height="24" transform="rotate(0,428,572)"/><rect x="416" y="608" width="24" height="24" transform="rotate(0,428,620)"/><rect x="416" y="656" width="24" height="24" transform="rotate(0,428,668)"/><rect x="416" y="680" width="24" height="24" transform="rotate(0,428,692)"/><rect x="416" y="704" width="24" height="24" transform="rotate(0,428,716)"/><rect x="416" y="728" width="24" height="24" transform="rotate(0,428,740)"/><rect x="416" y="800" width="24" height="24" transform="rotate(0,428,812)"/><rect x="440" y="152" width="24" height="24" transform="rotate(0,452,164)"/><rect x="440" y="176" width="24" height="24" transform="rotate(0,452,188)"/><rect x="440" y="200" width="24" height="24" transform="rotate(0,452,212)"/><rect x="440" y="224" width="24" height="24" transform="rotate(0,452,236)"/><rect x="440" y="296" width="24" height="24" transform="rotate(0,452,308)"/><rect x="440" y="368" width="24" height="24" transform="rotate(0,452,380)"/><rect x="440" y="416" width="24" height="24" transform="rotate(0,452,428)"/><rect x="440" y="440" width="24" height="24" transform="rotate(0,452,452)"/><rect x="440" y="464" width="24" height="24" transform="rotate(0,452,476)"/><rect x="440" y="512" width="24" height="24" transform="rotate(0,452,524)"/><rect x="440" y="536" width="24" height="24" transform="rotate(0,452,548)"/><rect x="440" y="560" width="24" height="24" transform="rotate(0,452,572)"/><rect x="440" y="680" width="24" height="24" transform="rotate(0,452,692)"/><rect x="440" y="704" width="24" height="24" transform="rotate(0,452,716)"/><rect x="464" y="152" width="24" height="24" transform="rotate(0,476,164)"/><rect x="464" y="248" width="24" height="24" transform="rotate(0,476,260)"/><rect x="464" y="344" width="24" height="24" transform="rotate(0,476,356)"/><rect x="464" y="416" width="24" height="24" transform="rotate(0,476,428)"/><rect x="464" y="464" width="24" height="24" transform="rotate(0,476,476)"/><rect x="464" y="512" width="24" height="24" transform="rotate(0,476,524)"/><rect x="464" y="560" width="24" height="24" transform="rotate(0,476,572)"/><rect x="464" y="584" width="24" height="24" transform="rotate(0,476,596)"/><rect x="464" y="632" width="24" height="24" transform="rotate(0,476,644)"/><rect x="464" y="656" width="24" height="24" transform="rotate(0,476,668)"/><rect x="464" y="680" width="24" height="24" transform="rotate(0,476,692)"/><rect x="464" y="704" width="24" height="24" transform="rotate(0,476,716)"/><rect x="464" y="800" width="24" height="24" transform="rotate(0,476,812)"/><rect x="464" y="824" width="24" height="24" transform="rotate(0,476,836)"/><rect x="488" y="176" width="24" height="24" transform="rotate(0,500,188)"/><rect x="488" y="200" width="24" height="24" transform="rotate(0,500,212)"/><rect x="488" y="248" width="24" height="24" transform="rotate(0,500,260)"/><rect x="488" y="272" width="24" height="24" transform="rotate(0,500,284)"/><rect x="488" y="296" width="24" height="24" transform="rotate(0,500,308)"/><rect x="488" y="392" width="24" height="24" transform="rotate(0,500,404)"/><rect x="488" y="416" width="24" height="24" transform="rotate(0,500,428)"/><rect x="488" y="440" width="24" height="24" transform="rotate(0,500,452)"/><rect x="488" y="656" width="24" height="24" transform="rotate(0,500,668)"/><rect x="488" y="680" width="24" height="24" transform="rotate(0,500,692)"/><rect x="488" y="704" width="24" height="24" transform="rotate(0,500,716)"/><rect x="488" y="776" width="24" height="24" transform="rotate(0,500,788)"/><rect x="488" y="800" width="24" height="24" transform="rotate(0,500,812)"/><rect x="488" y="824" width="24" height="24" transform="rotate(0,500,836)"/><rect x="512" y="176" width="24" height="24" transform="rotate(0,524,188)"/><rect x="512" y="272" width="24" height="24" transform="rotate(0,524,284)"/><rect x="512" y="320" width="24" height="24" transform="rotate(0,524,332)"/><rect x="512" y="368" width="24" height="24" transform="rotate(0,524,380)"/><rect x="512" y="512" width="24" height="24" transform="rotate(0,524,524)"/><rect x="512" y="536" width="24" height="24" transform="rotate(0,524,548)"/><rect x="512" y="560" width="24" height="24" transform="rotate(0,524,572)"/><rect x="512" y="584" width="24" height="24" transform="rotate(0,524,596)"/><rect x="512" y="632" width="24" height="24" transform="rotate(0,524,644)"/><rect x="512" y="656" width="24" height="24" transform="rotate(0,524,668)"/><rect x="512" y="704" width="24" height="24" transform="rotate(0,524,716)"/><rect x="512" y="800" width="24" height="24" transform="rotate(0,524,812)"/><rect x="512" y="824" width="24" height="24" transform="rotate(0,524,836)"/><rect x="536" y="152" width="24" height="24" transform="rotate(0,548,164)"/><rect x="536" y="200" width="24" height="24" transform="rotate(0,548,212)"/><rect x="536" y="272" width="24" height="24" transform="rotate(0,548,284)"/><rect x="536" y="296" width="24" height="24" transform="rotate(0,548,308)"/><rect x="536" y="368" width="24" height="24" transform="rotate(0,548,380)"/><rect x="536" y="392" width="24" height="24" transform="rotate(0,548,404)"/><rect x="536" y="440" width="24" height="24" transform="rotate(0,548,452)"/><rect x="536" y="488" width="24" height="24" transform="rotate(0,548,500)"/><rect x="536" y="536" width="24" height="24" transform="rotate(0,548,548)"/><rect x="536" y="560" width="24" height="24" transform="rotate(0,548,572)"/><rect x="536" y="584" width="24" height="24" transform="rotate(0,548,596)"/><rect x="536" y="656" width="24" height="24" transform="rotate(0,548,668)"/><rect x="536" y="680" width="24" height="24" transform="rotate(0,548,692)"/><rect x="536" y="752" width="24" height="24" transform="rotate(0,548,764)"/><rect x="536" y="800" width="24" height="24" transform="rotate(0,548,812)"/><rect x="560" y="176" width="24" height="24" transform="rotate(0,572,188)"/><rect x="560" y="200" width="24" height="24" transform="rotate(0,572,212)"/><rect x="560" y="272" width="24" height="24" transform="rotate(0,572,284)"/><rect x="560" y="416" width="24" height="24" transform="rotate(0,572,428)"/><rect x="560" y="464" width="24" height="24" transform="rotate(0,572,476)"/><rect x="560" y="512" width="24" height="24" transform="rotate(0,572,524)"/><rect x="560" y="536" width="24" height="24" transform="rotate(0,572,548)"/><rect x="560" y="560" width="24" height="24" transform="rotate(0,572,572)"/><rect x="560" y="680" width="24" height="24" transform="rotate(0,572,692)"/><rect x="560" y="776" width="24" height="24" transform="rotate(0,572,788)"/><rect x="560" y="800" width="24" height="24" transform="rotate(0,572,812)"/><rect x="560" y="824" width="24" height="24" transform="rotate(0,572,836)"/><rect x="584" y="152" width="24" height="24" transform="rotate(0,596,164)"/><rect x="584" y="248" width="24" height="24" transform="rotate(0,596,260)"/><rect x="584" y="272" width="24" height="24" transform="rotate(0,596,284)"/><rect x="584" y="296" width="24" height="24" transform="rotate(0,596,308)"/><rect x="584" y="344" width="24" height="24" transform="rotate(0,596,356)"/><rect x="584" y="416" width="24" height="24" transform="rotate(0,596,428)"/><rect x="584" y="440" width="24" height="24" transform="rotate(0,596,452)"/><rect x="584" y="464" width="24" height="24" transform="rotate(0,596,476)"/><rect x="584" y="488" width="24" height="24" transform="rotate(0,596,500)"/><rect x="584" y="512" width="24" height="24" transform="rotate(0,596,524)"/><rect x="584" y="536" width="24" height="24" transform="rotate(0,596,548)"/><rect x="584" y="584" width="24" height="24" transform="rotate(0,596,596)"/><rect x="584" y="656" width="24" height="24" transform="rotate(0,596,668)"/><rect x="584" y="704" width="24" height="24" transform="rotate(0,596,716)"/><rect x="584" y="752" width="24" height="24" transform="rotate(0,596,764)"/><rect x="584" y="800" width="24" height="24" transform="rotate(0,596,812)"/><rect x="584" y="824" width="24" height="24" transform="rotate(0,596,836)"/><rect x="608" y="176" width="24" height="24" transform="rotate(0,620,188)"/><rect x="608" y="320" width="24" height="24" transform="rotate(0,620,332)"/><rect x="608" y="368" width="24" height="24" transform="rotate(0,620,380)"/><rect x="608" y="416" width="24" height="24" transform="rotate(0,620,428)"/><rect x="608" y="464" width="24" height="24" transform="rotate(0,620,476)"/><rect x="608" y="536" width="24" height="24" transform="rotate(0,620,548)"/><rect x="608" y="560" width="24" height="24" transform="rotate(0,620,572)"/><rect x="608" y="584" width="24" height="24" transform="rotate(0,620,596)"/><rect x="608" y="608" width="24" height="24" transform="rotate(0,620,620)"/><rect x="608" y="632" width="24" height="24" transform="rotate(0,620,644)"/><rect x="608" y="680" width="24" height="24" transform="rotate(0,620,692)"/><rect x="608" y="728" width="24" height="24" transform="rotate(0,620,740)"/><rect x="608" y="824" width="24" height="24" transform="rotate(0,620,836)"/><rect x="632" y="152" width="24" height="24" transform="rotate(0,644,164)"/><rect x="632" y="200" width="24" height="24" transform="rotate(0,644,212)"/><rect x="632" y="224" width="24" height="24" transform="rotate(0,644,236)"/><rect x="632" y="296" width="24" height="24" transform="rotate(0,644,308)"/><rect x="632" y="320" width="24" height="24" transform="rotate(0,644,332)"/><rect x="632" y="344" width="24" height="24" transform="rotate(0,644,356)"/><rect x="632" y="368" width="24" height="24" transform="rotate(0,644,380)"/><rect x="632" y="416" width="24" height="24" transform="rotate(0,644,428)"/><rect x="632" y="440" width="24" height="24" transform="rotate(0,644,452)"/><rect x="632" y="512" width="24" height="24" transform="rotate(0,644,524)"/><rect x="632" y="560" width="24" height="24" transform="rotate(0,644,572)"/><rect x="632" y="632" width="24" height="24" transform="rotate(0,644,644)"/><rect x="632" y="656" width="24" height="24" transform="rotate(0,644,668)"/><rect x="632" y="680" width="24" height="24" transform="rotate(0,644,692)"/><rect x="632" y="704" width="24" height="24" transform="rotate(0,644,716)"/><rect x="632" y="728" width="24" height="24" transform="rotate(0,644,740)"/><rect x="632" y="800" width="24" height="24" transform="rotate(0,644,812)"/><rect x="656" y="344" width="24" height="24" transform="rotate(0,668,356)"/><rect x="656" y="368" width="24" height="24" transform="rotate(0,668,380)"/><rect x="656" y="416" width="24" height="24" transform="rotate(0,668,428)"/><rect x="656" y="488" width="24" height="24" transform="rotate(0,668,500)"/><rect x="656" y="536" width="24" height="24" transform="rotate(0,668,548)"/><rect x="656" y="584" width="24" height="24" transform="rotate(0,668,596)"/><rect x="656" y="632" width="24" height="24" transform="rotate(0,668,644)"/><rect x="656" y="728" width="24" height="24" transform="rotate(0,668,740)"/><rect x="656" y="800" width="24" height="24" transform="rotate(0,668,812)"/><rect x="656" y="824" width="24" height="24" transform="rotate(0,668,836)"/><rect x="680" y="344" width="24" height="24" transform="rotate(0,692,356)"/><rect x="680" y="368" width="24" height="24" transform="rotate(0,692,380)"/><rect x="680" y="416" width="24" height="24" transform="rotate(0,692,428)"/><rect x="680" y="440" width="24" height="24" transform="rotate(0,692,452)"/><rect x="680" y="464" width="24" height="24" transform="rotate(0,692,476)"/><rect x="680" y="536" width="24" height="24" transform="rotate(0,692,548)"/><rect x="680" y="608" width="24" height="24" transform="rotate(0,692,620)"/><rect x="680" y="632" width="24" height="24" transform="rotate(0,692,644)"/><rect x="680" y="680" width="24" height="24" transform="rotate(0,692,692)"/><rect x="680" y="728" width="24" height="24" transform="rotate(0,692,740)"/><rect x="680" y="776" width="24" height="24" transform="rotate(0,692,788)"/><rect x="680" y="824" width="24" height="24" transform="rotate(0,692,836)"/><rect x="704" y="368" width="24" height="24" transform="rotate(0,716,380)"/><rect x="704" y="392" width="24" height="24" transform="rotate(0,716,404)"/><rect x="704" y="464" width="24" height="24" transform="rotate(0,716,476)"/><rect x="704" y="536" width="24" height="24" transform="rotate(0,716,548)"/><rect x="704" y="560" width="24" height="24" transform="rotate(0,716,572)"/><rect x="704" y="584" width="24" height="24" transform="rotate(0,716,596)"/><rect x="704" y="632" width="24" height="24" transform="rotate(0,716,644)"/><rect x="704" y="728" width="24" height="24" transform="rotate(0,716,740)"/><rect x="728" y="344" width="24" height="24" transform="rotate(0,740,356)"/><rect x="728" y="368" width="24" height="24" transform="rotate(0,740,380)"/><rect x="728" y="392" width="24" height="24" transform="rotate(0,740,404)"/><rect x="728" y="464" width="24" height="24" transform="rotate(0,740,476)"/><rect x="728" y="488" width="24" height="24" transform="rotate(0,740,500)"/><rect x="728" y="536" width="24" height="24" transform="rotate(0,740,548)"/><rect x="728" y="632" width="24" height="24" transform="rotate(0,740,644)"/><rect x="728" y="656" width="24" height="24" transform="rotate(0,740,668)"/><rect x="728" y="680" width="24" height="24" transform="rotate(0,740,692)"/><rect x="728" y="704" width="24" height="24" transform="rotate(0,740,716)"/><rect x="728" y="728" width="24" height="24" transform="rotate(0,740,740)"/><rect x="728" y="752" width="24" height="24" transform="rotate(0,740,764)"/><rect x="752" y="392" width="24" height="24" transform="rotate(0,764,404)"/><rect x="752" y="416" width="24" height="24" transform="rotate(0,764,428)"/><rect x="752" y="512" width="24" height="24" transform="rotate(0,764,524)"/><rect x="752" y="560" width="24" height="24" transform="rotate(0,764,572)"/><rect x="752" y="584" width="24" height="24" transform="rotate(0,764,596)"/><rect x="752" y="632" width="24" height="24" transform="rotate(0,764,644)"/><rect x="752" y="656" width="24" height="24" transform="rotate(0,764,668)"/><rect x="752" y="728" width="24" height="24" transform="rotate(0,764,740)"/><rect x="752" y="776" width="24" height="24" transform="rotate(0,764,788)"/><rect x="776" y="344" width="24" height="24" transform="rotate(0,788,356)"/><rect x="776" y="368" width="24" height="24" transform="rotate(0,788,380)"/><rect x="776" y="392" width="24" height="24" transform="rotate(0,788,404)"/><rect x="776" y="416" width="24" height="24" transform="rotate(0,788,428)"/><rect x="776" y="488" width="24" height="24" transform="rotate(0,788,500)"/><rect x="776" y="560" width="24" height="24" transform="rotate(0,788,572)"/><rect x="776" y="584" width="24" height="24" transform="rotate(0,788,596)"/><rect x="776" y="608" width="24" height="24" transform="rotate(0,788,620)"/><rect x="776" y="704" width="24" height="24" transform="rotate(0,788,716)"/><rect x="776" y="728" width="24" height="24" transform="rotate(0,788,740)"/><rect x="776" y="752" width="24" height="24" transform="rotate(0,788,764)"/><rect x="776" y="776" width="24" height="24" transform="rotate(0,788,788)"/><rect x="776" y="824" width="24" height="24" transform="rotate(0,788,836)"/><rect x="800" y="344" width="24" height="24" transform="rotate(0,812,356)"/><rect x="800" y="368" width="24" height="24" transform="rotate(0,812,380)"/><rect x="800" y="392" width="24" height="24" transform="rotate(0,812,404)"/><rect x="800" y="440" width="24" height="24" transform="rotate(0,812,452)"/><rect x="800" y="512" width="24" height="24" transform="rotate(0,812,524)"/><rect x="800" y="560" width="24" height="24" transform="rotate(0,812,572)"/><rect x="800" y="632" width="24" height="24" transform="rotate(0,812,644)"/><rect x="800" y="656" width="24" height="24" transform="rotate(0,812,668)"/><rect x="800" y="704" width="24" height="24" transform="rotate(0,812,716)"/><rect x="800" y="752" width="24" height="24" transform="rotate(0,812,764)"/><rect x="800" y="800" width="24" height="24" transform="rotate(0,812,812)"/><rect x="824" y="368" width="24" height="24" transform="rotate(0,836,380)"/><rect x="824" y="512" width="24" height="24" transform="rotate(0,836,524)"/><rect x="824" y="536" width="24" height="24" transform="rotate(0,836,548)"/><rect x="824" y="560" width="24" height="24" transform="rotate(0,836,572)"/><rect x="824" y="632" width="24" height="24" transform="rotate(0,836,644)"/><rect x="824" y="656" width="24" height="24" transform="rotate(0,836,668)"/><rect x="824" y="680" width="24" height="24" transform="rotate(0,836,692)"/><rect x="824" y="728" width="24" height="24" transform="rotate(0,836,740)"/><rect x="824" y="800" width="24" height="24" transform="rotate(0,836,812)"/><rect x="824" y="824" width="24" height="24" transform="rotate(0,836,836)"/></clipPath><clipPath id="clip-path-corners-square-color-0-0"><rect x="152" y="152" width="24" height="24" transform="rotate(0,164,164)"/><rect x="152" y="176" width="24" height="24" transform="rotate(0,164,188)"/><rect x="152" y="200" width="24" height="24" transform="rotate(0,164,212)"/><rect x="152" y="224" width="24" height="24" transform="rotate(0,164,236)"/><rect x="152" y="248" width="24" height="24" transform="rotate(0,164,260)"/><rect x="152" y="272" width="24" height="24" transform="rotate(0,164,284)"/><rect x="152" y="296" width="24" height="24" transform="rotate(0,164,308)"/><rect x="176" y="152" width="24" height="24" transform="rotate(0,188,164)"/><rect x="176" y="296" width="24" height="24" transform="rotate(0,188,308)"/><rect x="200" y="152" width="24" height="24" transform="rotate(0,212,164)"/><rect x="200" y="296" width="24" height="24" transform="rotate(0,212,308)"/><rect x="224" y="152" width="24" height="24" transform="rotate(0,236,164)"/><rect x="224" y="296" width="24" height="24" transform="rotate(0,236,308)"/><rect x="248" y="152" width="24" height="24" transform="rotate(0,260,164)"/><rect x="248" y="296" width="24" height="24" transform="rotate(0,260,308)"/><rect x="272" y="152" width="24" height="24" transform="rotate(0,284,164)"/><rect x="272" y="296" width="24" height="24" transform="rotate(0,284,308)"/><rect x="296" y="152" width="24" height="24" transform="rotate(0,308,164)"/><rect x="296" y="176" width="24" height="24" transform="rotate(0,308,188)"/><rect x="296" y="200" width="24" height="24" transform="rotate(0,308,212)"/><rect x="296" y="224" width="24" height="24" transform="rotate(0,308,236)"/><rect x="296" y="248" width="24" height="24" transform="rotate(0,308,260)"/><rect x="296" y="272" width="24" height="24" transform="rotate(0,308,284)"/><rect x="296" y="296" width="24" height="24" transform="rotate(0,308,308)"/></clipPath><clipPath id="clip-path-corners-dot-color-0-0"><rect x="200" y="200" width="24" height="24" transform="rotate(0,212,212)"/><rect x="200" y="224" width="24" height="24" transform="rotate(0,212,236)"/><rect x="200" y="248" width="24" height="24" transform="rotate(0,212,260)"/><rect x="224" y="200" width="24" height="24" transform="rotate(0,236,212)"/><rect x="224" y="224" width="24" height="24" transform="rotate(0,236,236)"/><rect x="224" y="248" width="24" height="24" transform="rotate(0,236,260)"/><rect x="248" y="200" width="24" height="24" transform="rotate(0,260,212)"/><rect x="248" y="224" width="24" height="24" transform="rotate(0,260,236)"/><rect x="248" y="248" width="24" height="24" transform="rotate(0,260,260)"/></clipPath><clipPath id="clip-path-corners-square-color-1-0"><rect x="680" y="152" width="24" height="24" transform="rotate(0,692,164)"/><rect x="680" y="176" width="24" height="24" transform="rotate(0,692,188)"/><rect x="680" y="200" width="24" height="24" transform="rotate(0,692,212)"/><rect x="680" y="224" width="24" height="24" transform="rotate(0,692,236)"/><rect x="680" y="248" width="24" height="24" transform="rotate(0,692,260)"/><rect x="680" y="272" width="24" height="24" transform="rotate(0,692,284)"/><rect x="680" y="296" width="24" height="24" transform="rotate(0,692,308)"/><rect x="704" y="152" width="24" height="24" transform="rotate(0,716,164)"/><rect x="704" y="296" width="24" height="24" transform="rotate(0,716,308)"/><rect x="728" y="152" width="24" height="24" transform="rotate(0,740,164)"/><rect x="728" y="296" width="24" height="24" transform="rotate(0,740,308)"/><rect x="752" y="152" width="24" height="24" transform="rotate(0,764,164)"/><rect x="752" y="296" width="24" height="24" transform="rotate(0,764,308)"/><rect x="776" y="152" width="24" height="24" transform="rotate(0,788,164)"/><rect x="776" y="296" width="24" height="24" transform="rotate(0,788,308)"/><rect x="800" y="152" width="24" height="24" transform="rotate(0,812,164)"/><rect x="800" y="296" width="24" height="24" transform="rotate(0,812,308)"/><rect x="824" y="152" width="24" height="24" transform="rotate(0,836,164)"/><rect x="824" y="176" width="24" height="24" transform="rotate(0,836,188)"/><rect x="824" y="200" width="24" height="24" transform="rotate(0,836,212)"/><rect x="824" y="224" width="24" height="24" transform="rotate(0,836,236)"/><rect x="824" y="248" width="24" height="24" transform="rotate(0,836,260)"/><rect x="824" y="272" width="24" height="24" transform="rotate(0,836,284)"/><rect x="824" y="296" width="24" height="24" transform="rotate(0,836,308)"/></clipPath><clipPath id="clip-path-corners-dot-color-1-0"><rect x="728" y="200" width="24" height="24" transform="rotate(0,740,212)"/><rect x="728" y="224" width="24" height="24" transform="rotate(0,740,236)"/><rect x="728" y="248" width="24" height="24" transform="rotate(0,740,260)"/><rect x="752" y="200" width="24" height="24" transform="rotate(0,764,212)"/><rect x="752" y="224" width="24" height="24" transform="rotate(0,764,236)"/><rect x="752" y="248" width="24" height="24" transform="rotate(0,764,260)"/><rect x="776" y="200" width="24" height="24" transform="rotate(0,788,212)"/><rect x="776" y="224" width="24" height="24" transform="rotate(0,788,236)"/><rect x="776" y="248" width="24" height="24" transform="rotate(0,788,260)"/></clipPath><clipPath id="clip-path-corners-square-color-0-1"><rect x="152" y="680" width="24" height="24" transform="rotate(0,164,692)"/><rect x="152" y="704" width="24" height="24" transform="rotate(0,164,716)"/><rect x="152" y="728" width="24" height="24" transform="rotate(0,164,740)"/><rect x="152" y="752" width="24" height="24" transform="rotate(0,164,764)"/><rect x="152" y="776" width="24" height="24" transform="rotate(0,164,788)"/><rect x="152" y="800" width="24" height="24" transform="rotate(0,164,812)"/><rect x="152" y="824" width="24" height="24" transform="rotate(0,164,836)"/><rect x="176" y="680" width="24" height="24" transform="rotate(0,188,692)"/><rect x="176" y="824" width="24" height="24" transform="rotate(0,188,836)"/><rect x="200" y="680" width="24" height="24" transform="rotate(0,212,692)"/><rect x="200" y="824" width="24" height="24" transform="rotate(0,212,836)"/><rect x="224" y="680" width="24" height="24" transform="rotate(0,236,692)"/><rect x="224" y="824" width="24" height="24" transform="rotate(0,236,836)"/><rect x="248" y="680" width="24" height="24" transform="rotate(0,260,692)"/><rect x="248" y="824" width="24" height="24" transform="rotate(0,260,836)"/><rect x="272" y="680" width="24" height="24" transform="rotate(0,284,692)"/><rect x="272" y="824" width="24" height="24" transform="rotate(0,284,836)"/><rect x="296" y="680" width="24" height="24" transform="rotate(0,308,692)"/><rect x="296" y="704" width="24" height="24" transform="rotate(0,308,716)"/><rect x="296" y="728" width="24" height="24" transform="rotate(0,308,740)"/><rect x="296" y="752" width="24" height="24" transform="rotate(0,308,764)"/><rect x="296" y="776" width="24" height="24" transform="rotate(0,308,788)"/><rect x="296" y="800" width="24" height="24" transform="rotate(0,308,812)"/><rect x="296" y="824" width="24" height="24" transform="rotate(0,308,836)"/></clipPath><clipPath id="clip-path-corners-dot-color-0-1"><rect x="200" y="728" width="24" height="24" transform="rotate(0,212,740)"/><rect x="200" y="752" width="24" height="24" transform="rotate(0,212,764)"/><rect x="200" y="776" width="24" height="24" transform="rotate(0,212,788)"/><rect x="224" y="728" width="24" height="24" transform="rotate(0,236,740)"/><rect x="224" y="752" width="24" height="24" transform="rotate(0,236,764)"/><rect x="224" y="776" width="24" height="24" transform="rotate(0,236,788)"/><rect x="248" y="728" width="24" height="24" transform="rotate(0,260,740)"/><rect x="248" y="752" width="24" height="24" transform="rotate(0,260,764)"/><rect x="248" y="776" width="24" height="24" transform="rotate(0,260,788)"/></clipPath></defs><defs/><path fill="#000000" d="M960,0H40A40,40,0,0,0,0,40V960a40,40,0,0,0,40,40H960a40,40,0,0,0,40-40V40A40,40,0,0,0,960,0Zm0,960H40V40H960Z"/><path fill="#000000" d="M960,1040H40a40,40,0,0,0-40,40v180a40,40,0,0,0,40,40H960a40,40,0,0,0,40-40V1080A40,40,0,0,0,960,1040ZM216,1201.86a12,12,0,0,1-12,12H108a12,12,0,0,1-12-12v-61.72a12,12,0,0,1,12-12h96a12,12,0,0,1,12,12Z"/><polygon fill="#000000" points="139.81 1150 139.81 1171 139.81 1192 158 1181.5 176.19 1171 158 1160.5 139.81 1150"/>
			<text x="60%" y="1180" fill="#ffffff" dominant-baseline="middle" text-anchor="middle" font-family="sans-serif" font-size="86" font-weight="600">Scan me!</text><rect x="112" y="112" height="777" width="776" clip-path="url('#clip-path-background-color')" fill="#ffffff"/><rect x="152" y="152" height="696" width="696" clip-path="url('#clip-path-dot-color')" fill="#000000"/><rect x="152" y="152" height="168" width="168" clip-path="url('#clip-path-corners-square-color-0-0')" fill="#000000"/><rect x="200" y="200" height="72" width="72" clip-path="url('#clip-path-corners-dot-color-0-0')" fill="#000000"/><rect x="680" y="152" height="168" width="168" clip-path="url('#clip-path-corners-square-color-1-0')" fill="#000000"/><rect x="728" y="200" height="72" width="72" clip-path="url('#clip-path-corners-dot-color-1-0')" fill="#000000"/><rect x="152" y="680" height="168" width="168" clip-path="url('#clip-path-corners-square-color-0-1')" fill="#000000"/><rect x="200" y="728" height="72" width="72" clip-path="url('#clip-path-corners-dot-color-0-1')" fill="#000000"/></svg>